<?xml version="1.0" encoding="UTF-8" standalone="no"?>
<!-- Created with Inkscape (http://www.inkscape.org/) -->

<svg
   xmlns:dc="http://purl.org/dc/elements/1.1/"
   xmlns:cc="http://creativecommons.org/ns#"
   xmlns:rdf="http://www.w3.org/1999/02/22-rdf-syntax-ns#"
   xmlns:svg="http://www.w3.org/2000/svg"
   xmlns="http://www.w3.org/2000/svg"
   xmlns:sodipodi="http://sodipodi.sourceforge.net/DTD/sodipodi-0.dtd"
   xmlns:inkscape="http://www.inkscape.org/namespaces/inkscape"
   width="210mm"
   height="297mm"
   viewBox="0 0 744.09448819 1052.3622047"
   id="svg2"
   version="1.1"
   inkscape:version="0.91 r13725"
   inkscape:export-filename="/home/jariaza/Documentos/proyectos/fasill/logo/colorx2048.png"
   inkscape:export-xdpi="262.49774"
   inkscape:export-ydpi="262.49774"
   sodipodi:docname="fasill.svg">
  <defs
     id="defs4" />
  <sodipodi:namedview
     id="base"
     pagecolor="#ffffff"
     bordercolor="#666666"
     borderopacity="1.0"
     inkscape:pageopacity="0.0"
     inkscape:pageshadow="2"
     inkscape:zoom="0.7"
     inkscape:cx="309.33138"
     inkscape:cy="599.34334"
     inkscape:document-units="px"
     inkscape:current-layer="layer1"
     showgrid="false"
     inkscape:window-width="1855"
     inkscape:window-height="1056"
     inkscape:window-x="65"
     inkscape:window-y="24"
     inkscape:window-maximized="1" />
  <metadata
     id="metadata7">
    <rdf:RDF>
      <cc:Work
         rdf:about="">
        <dc:format>image/svg+xml</dc:format>
        <dc:type
           rdf:resource="http://purl.org/dc/dcmitype/StillImage" />
        <dc:title></dc:title>
      </cc:Work>
    </rdf:RDF>
  </metadata>
  <g
     inkscape:label="Capa 1"
     inkscape:groupmode="layer"
     id="layer1">
    <g
       id="g4476"
       transform="matrix(0.57211534,0,0,0.57211534,628.55109,671.27039)">
      <flowRoot
         inkscape:export-ydpi="148.97363"
         inkscape:export-xdpi="148.97363"
         transform="matrix(3.4270681,0,0,3.4270681,-1320.7091,-946.12608)"
         style="font-style:normal;font-variant:normal;font-weight:normal;font-stretch:normal;font-size:45px;line-height:125%;font-family:Carlito;-inkscape-font-specification:Carlito;text-align:start;letter-spacing:6.00000048px;word-spacing:0px;text-anchor:start;fill:#444444;fill-opacity:1;stroke:none;stroke-width:1px;stroke-linecap:butt;stroke-linejoin:miter;stroke-opacity:1"
         id="flowRoot4136"
         xml:space="preserve"><flowRegion
           id="flowRegion4138"><rect
             style="font-style:normal;font-variant:normal;font-weight:normal;font-stretch:normal;font-size:45px;font-family:Carlito;-inkscape-font-specification:Carlito;letter-spacing:6.00000048px;fill:#444444;fill-opacity:1"
             y="173.79077"
             x="114.28571"
             height="334.28571"
             width="608.57141"
             id="rect4140" /></flowRegion><flowPara
           style="letter-spacing:4.37691927px;fill:#444444;fill-opacity:1"
           id="flowPara4142">FASILL</flowPara></flowRoot>      <path
         inkscape:export-ydpi="148.97363"
         inkscape:export-xdpi="148.97363"
         inkscape:connector-curvature="0"
         id="path4394"
         d="m -1017.3328,-331.53823 a 49.642704,49.642704 0 0 0 -49.643,49.64303 49.642704,49.642704 0 0 0 34.2034,47.11704 c -0.079,0.60006 -0.1294,0.96664 -0.2514,1.93733 -2.9245,22.19188 -4.9901,36.81514 -6.3664,43.52432 -0.6881,3.61263 0.3444,5.50356 3.2689,6.01964 0.8602,0.17203 1.7203,6e-4 2.2364,-0.17143 1.2043,-0.51612 2.236,-2.23602 2.9241,-5.16052 0.8602,-3.61263 2.0643,-18.06373 3.9566,-43.00808 0.043,-0.71106 0.087,-1.07536 0.1296,-1.58492 a 49.642704,49.642704 0 0 0 9.5418,0.97153 49.642704,49.642704 0 0 0 49.64115,-49.64491 49.642704,49.642704 0 0 0 -49.64115,-49.64303 z m 0,9.43142 a 40.211179,40.211179 0 0 1 4.0138,0.20001 40.211179,40.211179 0 0 1 3.9756,0.60197 40.211179,40.211179 0 0 1 2.025,0.51625 c -4.9857,2.5076 -9.2722,6.91192 -12.8013,13.28702 -5.2416,9.29959 -9.3176,30.42532 -11.9059,62.99673 a 40.211179,40.211179 0 0 1 -0.9659,-0.35243 40.211179,40.211179 0 0 1 -3.6194,-1.74873 40.211179,40.211179 0 0 1 -3.427,-2.10118 40.211179,40.211179 0 0 1 -3.2003,-2.4326 40.211179,40.211179 0 0 1 -2.9412,-2.74123 40.211179,40.211179 0 0 1 -2.6498,-3.01935 40.211179,40.211179 0 0 1 -2.3393,-3.2689 40.211179,40.211179 0 0 1 -2.0002,-3.48605 40.211179,40.211179 0 0 1 -1.642,-3.66895 40.211179,40.211179 0 0 1 -1.2687,-3.81561 40.211179,40.211179 0 0 1 -0.8782,-3.92228 40.211179,40.211179 0 0 1 -0.4839,-3.98897 40.211179,40.211179 0 0 1 -0.1009,-2.84409 40.211179,40.211179 0 0 1 0.2,-4.01375 40.211179,40.211179 0 0 1 0.6001,-3.97563 40.211179,40.211179 0 0 1 0.9963,-3.8937 40.211179,40.211179 0 0 1 1.3772,-3.77562 40.211179,40.211179 0 0 1 1.7488,-3.61941 40.211179,40.211179 0 0 1 2.0992,-3.42701 40.211179,40.211179 0 0 1 2.4327,-3.19841 40.211179,40.211179 0 0 1 2.7412,-2.94124 40.211179,40.211179 0 0 1 3.0193,-2.65359 40.211179,40.211179 0 0 1 3.2689,-2.33928 40.211179,40.211179 0 0 1 3.488,-1.9983 40.211179,40.211179 0 0 1 3.667,-1.64206 40.211179,40.211179 0 0 1 3.8137,-1.2668 40.211179,40.211179 0 0 1 3.9223,-0.88199 40.211179,40.211179 0 0 1 3.9909,-0.48386 40.211179,40.211179 0 0 1 2.8441,-0.10091 z m 18.47995,4.5376 a 40.211179,40.211179 0 0 1 0.79819,0.3848 40.211179,40.211179 0 0 1 3.42701,2.10115 40.211179,40.211179 0 0 1 3.20031,2.43264 40.211179,40.211179 0 0 1 2.94125,2.73931 40.211179,40.211179 0 0 1 2.65169,3.01932 40.211179,40.211179 0 0 1 2.33927,3.27083 40.211179,40.211179 0 0 1 2.0002,3.48607 40.211179,40.211179 0 0 1 1.64206,3.66891 40.211179,40.211179 0 0 1 1.2668,3.81563 40.211179,40.211179 0 0 1 0.87818,3.92228 40.211179,40.211179 0 0 1 0.48576,3.98898 40.211179,40.211179 0 0 1 0.10093,2.84409 40.211179,40.211179 0 0 1 -0.20001,4.01564 40.211179,40.211179 0 0 1 -0.60009,3.97372 40.211179,40.211179 0 0 1 -0.99626,3.89371 40.211179,40.211179 0 0 1 -1.3773,3.7756 40.211179,40.211179 0 0 1 -1.74873,3.61941 40.211179,40.211179 0 0 1 -2.09927,3.42702 40.211179,40.211179 0 0 1 -2.43453,3.2003 40.211179,40.211179 0 0 1 -2.73929,2.93936 40.211179,40.211179 0 0 1 -3.01935,2.65359 40.211179,40.211179 0 0 1 -3.27082,2.33928 40.211179,40.211179 0 0 1 -3.48606,1.9983 40.211179,40.211179 0 0 1 -3.66699,1.64206 40.211179,40.211179 0 0 1 -3.8156,1.26679 40.211179,40.211179 0 0 1 -3.9223,0.882 40.211179,40.211179 0 0 1 -3.989,0.48384 40.211179,40.211179 0 0 1 -2.846,0.10093 40.211179,40.211179 0 0 1 -4.0137,-0.20193 40.211179,40.211179 0 0 1 -3.9737,-0.60007 40.211179,40.211179 0 0 1 -0.8877,-0.22668 c 2.2829,-36.70683 7.2285,-59.4072 14.5176,-67.71336 3.8628,-4.32639 8.1422,-6.70301 12.83741,-7.14357 z"
         style="font-style:normal;font-variant:normal;font-weight:normal;font-stretch:normal;font-size:45px;line-height:125%;font-family:'GFS Gazis';-inkscape-font-specification:'GFS Gazis';text-align:start;letter-spacing:0px;word-spacing:0px;text-anchor:start;fill:#b83d4e;fill-opacity:1;stroke:none;stroke-width:1px;stroke-linecap:butt;stroke-linejoin:miter;stroke-opacity:1" />
      <flowRoot
         inkscape:export-ydpi="148.97363"
         inkscape:export-xdpi="148.97363"
         transform="matrix(1.6867713,0,0,1.6867713,-1055.3695,-1203.4556)"
         xml:space="preserve"
         id="flowRoot4401"
         style="font-style:normal;font-variant:normal;font-weight:normal;font-stretch:normal;font-size:28.59955788px;line-height:125%;font-family:Carlito;-inkscape-font-specification:Carlito;text-align:start;letter-spacing:0px;word-spacing:0px;text-anchor:start;fill:#6c757d;fill-opacity:1;stroke:none;stroke-width:1px;stroke-linecap:butt;stroke-linejoin:miter;stroke-opacity:1"><flowRegion
           id="flowRegion4403"><rect
             id="rect4405"
             width="1102.9899"
             height="68.072906"
             x="79.049606"
             y="582.81824"
             style="font-style:normal;font-variant:normal;font-weight:normal;font-stretch:normal;font-size:28.59955788px;font-family:Carlito;-inkscape-font-specification:Carlito;letter-spacing:0px;fill:#6c757d;fill-opacity:1" /></flowRegion><flowPara
           id="flowPara4407">Fuzzy Aggregators and Similarities Into a Logic Language</flowPara></flowRoot>    </g>
  </g>
</svg>
