<?xml version="1.0" encoding="UTF-8" standalone="no"?>
<!-- Created with Inkscape (http://www.inkscape.org/) -->

<svg
   xmlns:dc="http://purl.org/dc/elements/1.1/"
   xmlns:cc="http://creativecommons.org/ns#"
   xmlns:rdf="http://www.w3.org/1999/02/22-rdf-syntax-ns#"
   xmlns:svg="http://www.w3.org/2000/svg"
   xmlns="http://www.w3.org/2000/svg"
   xmlns:sodipodi="http://sodipodi.sourceforge.net/DTD/sodipodi-0.dtd"
   xmlns:inkscape="http://www.inkscape.org/namespaces/inkscape"
   width="210mm"
   height="297mm"
   viewBox="0 0 744.09448819 1052.3622047"
   id="svg2"
   version="1.1"
   inkscape:version="0.91 r13725"
   inkscape:export-filename="/home/jariaza/Documentos/proyectos/fasill/logo/colorx1024.png"
   inkscape:export-xdpi="131.24693"
   inkscape:export-ydpi="131.24693"
   sodipodi:docname="fasill.svg">
  <defs
     id="defs4" />
  <sodipodi:namedview
     id="base"
     pagecolor="#ffffff"
     bordercolor="#666666"
     borderopacity="1.0"
     inkscape:pageopacity="0.0"
     inkscape:pageshadow="2"
     inkscape:zoom="1.4"
     inkscape:cx="327.79065"
     inkscape:cy="513.86039"
     inkscape:document-units="px"
     inkscape:current-layer="layer1"
     showgrid="false"
     inkscape:window-width="1855"
     inkscape:window-height="1056"
     inkscape:window-x="65"
     inkscape:window-y="24"
     inkscape:window-maximized="1" />
  <metadata
     id="metadata7">
    <rdf:RDF>
      <cc:Work
         rdf:about="">
        <dc:format>image/svg+xml</dc:format>
        <dc:type
           rdf:resource="http://purl.org/dc/dcmitype/StillImage" />
        <dc:title />
      </cc:Work>
    </rdf:RDF>
  </metadata>
  <g
     inkscape:label="Capa 1"
     inkscape:groupmode="layer"
     id="layer1">
    <g
       transform="matrix(1.5388313,1.0151986,-1.0151986,1.5388313,584.60321,-948.83245)"
       style="font-style:normal;font-variant:normal;font-weight:normal;font-stretch:semi-condensed;font-size:80px;line-height:125%;font-family:symbola;-inkscape-font-specification:'symbola Semi-Condensed';text-align:start;letter-spacing:0px;word-spacing:0px;text-anchor:start;fill:#b83d4e;fill-opacity:1;stroke:none;stroke-width:1px;stroke-linecap:butt;stroke-linejoin:miter;stroke-opacity:1"
       id="flowRoot4213" />
    <flowRoot
       xml:space="preserve"
       id="flowRoot4226"
       style="fill:black;stroke:none;stroke-opacity:1;stroke-width:1px;stroke-linejoin:miter;stroke-linecap:butt;fill-opacity:1;font-family:sans-serif;font-style:normal;font-weight:normal;font-size:25px;line-height:125%;letter-spacing:0px;word-spacing:0px;text-anchor:start;text-align:start"><flowRegion
         id="flowRegion4228"><rect
           id="rect4230"
           width="77.781746"
           height="53.033009"
           x="-177.78685"
           y="381.11584" /></flowRegion><flowPara
         id="flowPara4232" /></flowRoot>    <g
       id="g4168"
       transform="translate(-2.822273,4.578833e-4)">
      <flowRoot
         inkscape:export-ydpi="264.62103"
         inkscape:export-xdpi="264.62103"
         transform="matrix(1.9606782,0,0,1.9606782,-129.88232,129.97715)"
         style="font-style:normal;font-variant:normal;font-weight:normal;font-stretch:normal;font-size:45px;line-height:125%;font-family:Carlito;-inkscape-font-specification:Carlito;text-align:start;letter-spacing:6.00000048px;word-spacing:0px;text-anchor:start;fill:#444444;fill-opacity:1;stroke:none;stroke-width:1px;stroke-linecap:butt;stroke-linejoin:miter;stroke-opacity:1"
         id="flowRoot4136"
         xml:space="preserve"><flowRegion
           id="flowRegion4138"><rect
             style="font-style:normal;font-variant:normal;font-weight:normal;font-stretch:normal;font-size:45px;font-family:Carlito;-inkscape-font-specification:Carlito;letter-spacing:6.00000048px;fill:#444444;fill-opacity:1"
             y="173.79077"
             x="114.28571"
             height="334.28571"
             width="608.57141"
             id="rect4140" /></flowRegion><flowPara
           style="letter-spacing:4.37691927px;fill:#444444;fill-opacity:1"
           id="flowPara4142">FASILL</flowPara></flowRoot>      <flowRoot
         inkscape:export-ydpi="264.62103"
         inkscape:export-xdpi="264.62103"
         transform="matrix(0.96502774,0,0,0.96502774,21.92254,-17.24502)"
         xml:space="preserve"
         id="flowRoot4401"
         style="font-style:normal;font-variant:normal;font-weight:normal;font-stretch:normal;font-size:28.59955788px;line-height:125%;font-family:Carlito;-inkscape-font-specification:Carlito;text-align:start;letter-spacing:0px;word-spacing:0px;text-anchor:start;fill:#6c757d;fill-opacity:1;stroke:none;stroke-width:1px;stroke-linecap:butt;stroke-linejoin:miter;stroke-opacity:1"><flowRegion
           id="flowRegion4403"><rect
             id="rect4405"
             width="1102.9899"
             height="68.072906"
             x="79.049606"
             y="582.81824"
             style="font-style:normal;font-variant:normal;font-weight:normal;font-stretch:normal;font-size:28.59955788px;font-family:Carlito;-inkscape-font-specification:Carlito;letter-spacing:0px;fill:#6c757d;fill-opacity:1" /></flowRegion><flowPara
           id="flowPara4407">Fuzzy Aggregators and Similarities Into a Logic Language</flowPara></flowRoot>      <g
         inkscape:export-ydpi="74.666306"
         inkscape:export-xdpi="74.666306"
         transform="translate(2.8571429,0)"
         id="g4164">
        <path
           style="font-style:normal;font-variant:normal;font-weight:normal;font-stretch:semi-condensed;font-size:147.48298645px;line-height:125%;font-family:symbola;-inkscape-font-specification:'symbola Semi-Condensed';text-align:start;letter-spacing:0px;word-spacing:0px;text-anchor:start;opacity:1;fill:#e53d4e;fill-opacity:1;stroke:none;stroke-width:1px;stroke-linecap:butt;stroke-linejoin:miter;stroke-opacity:1"
           d="m 42.964432,504.36592 c -2.04613,0 -3.7773,0.65952 -5.19238,1.97776 -1.35771,1.24245 -2.03586,2.68785 -2.03586,4.33941 l 0,3.95155 c 0,0.86366 0.28549,1.29497 0.85918,1.29497 0.3442,0 0.63177,-0.32592 0.86124,-0.97745 0.13385,-0.4394 0.25882,-0.8784 0.37355,-1.31782 0.82228,-1.9849 2.53358,-2.97804 5.13427,-2.97804 1.64454,0 3.87139,0.88775 6.68242,2.66053 2.83016,1.75762 5.20182,2.63561 7.11409,2.63561 2.06525,0 3.79642,-0.65185 5.19237,-1.95492 1.33859,-1.24245 2.0068,-2.70322 2.0068,-4.38508 l 0,-3.95135 c 0,-0.84852 -0.26769,-1.27215 -0.80312,-1.27215 -0.42071,0 -0.71613,0.3699 -0.88823,1.11235 -0.70754,2.78797 -2.5438,4.18379 -5.50782,4.18379 -1.64455,0 -3.88133,-0.88775 -6.71148,-2.66053 -2.81103,-1.77279 -5.17277,-2.65844 -7.08503,-2.65844 z"
           id="flowRoot4272"
           inkscape:connector-curvature="0"
           sodipodi:nodetypes="ccccsccscscccscsccc" />
        <path
           style="font-style:normal;font-variant:normal;font-weight:normal;font-stretch:normal;font-size:88.23052216px;line-height:125%;font-family:Carlito;-inkscape-font-specification:Carlito;text-align:start;letter-spacing:11.76407051px;word-spacing:0px;text-anchor:start;fill:#e53d4e;fill-opacity:1;stroke:none;stroke-width:1px;stroke-linecap:butt;stroke-linejoin:miter;stroke-opacity:1"
           d="m 49.891121,481.23047 c -3.877318,0 -7.423887,0.71825 -10.640625,2.1543 -3.216738,1.40732 -5.973815,3.4034 -8.271484,5.98828 -2.29767,2.55615 -4.078079,5.61439 -5.341797,9.17578 -1.263719,3.53267 -1.896485,7.41084 -1.896485,11.63281 0,4.25069 0.632766,8.14116 1.896485,11.67383 1.263718,3.53267 3.044127,6.57861 5.341797,9.13476 2.297669,2.55616 5.054746,4.55224 8.271484,5.98829 3.216738,1.40732 6.763307,2.10937 10.640625,2.10937 3.906039,0 7.452608,-0.70205 10.640625,-2.10937 3.216738,-1.43605 5.959567,-3.43213 8.228516,-5.98829 2.29767,-2.55615 4.063831,-5.60209 5.298828,-9.13476 1.263719,-3.53267 1.896484,-7.42314 1.896484,-11.67383 0,-4.22197 -0.632765,-8.10014 -1.896484,-11.63281 -1.234997,-3.56139 -3.001158,-6.61963 -5.298828,-9.17578 -2.268949,-2.58488 -5.011778,-4.58096 -8.228516,-5.98828 -3.188017,-1.43605 -6.734586,-2.1543 -10.640625,-2.1543 z m 0,6.76367 c 2.757204,0 5.241618,0.51683 7.453125,1.55078 2.240228,1.00523 4.136573,2.47023 5.6875,4.39453 1.579648,1.89558 2.786235,4.22131 3.619141,6.97852 0.861626,2.72848 1.291016,5.81717 1.291016,9.26367 0,3.44651 -0.42939,6.54748 -1.291016,9.30469 -0.832906,2.72848 -2.039493,5.05617 -3.619141,6.98047 -1.550927,1.89557 -3.447272,3.34438 -5.6875,4.34961 -2.211507,1.00523 -4.695921,1.50781 -7.453125,1.50781 -2.757204,0 -5.255866,-0.50258 -7.496094,-1.50781 -2.211507,-1.00523 -4.107852,-2.45404 -5.6875,-4.34961 -1.579648,-1.9243 -2.79853,-4.25199 -3.660156,-6.98047 -0.832905,-2.75721 -1.25,-5.85818 -1.25,-9.30469 0,-3.4465 0.417095,-6.53519 1.25,-9.26367 0.861626,-2.75721 2.080508,-5.08294 3.660156,-6.97852 1.579648,-1.9243 3.475993,-3.3893 5.6875,-4.39453 2.240228,-1.03395 4.73889,-1.55078 7.496094,-1.55078 z"
           id="flowRoot4149"
           inkscape:connector-curvature="0" />
      </g>
    </g>
  </g>
</svg>
